<svg height="3156.5" viewBox="0 0 1973.613 3156.5" width="1973.613" xmlns="http://www.w3.org/2000/svg" xmlns:xlink="http://www.w3.org/1999/xlink"><filter id="a" filterUnits="userSpaceOnUse" height="804" width="1970.613" x="0" y="780.5"><feOffset dy="3"/><feGaussianBlur result="blur" stdDeviation="3"/><feFlood/><feComposite in2="blur" operator="in"/><feComposite in="SourceGraphic"/></filter><filter id="b" filterUnits="userSpaceOnUse" height="804" width="1970.613" x="3" y="2352.5"><feOffset dx="3" dy="3"/><feGaussianBlur result="blur-2" stdDeviation="3"/><feFlood/><feComposite in2="blur-2" operator="in"/><feComposite in="SourceGraphic"/></filter><g fill="#6fe2dd" transform="translate(9 1566.811)"><path d="m1950.0489502 791.18914795h-1949.54880524v-790.44684148z"/><path d="m.99987793 1.48455811v789.20458984h1946.48498535zm-1-1.48449707 1952.6126709 791.68908691h-1952.6126709z" fill="#6fe2dd"/></g><g filter="url(#a)" transform="translate(.001)"><path d="m0 786v-786h1952.613z" fill="#6fe2dd" transform="translate(9 786.5)"/></g><g fill="#6fe2dd" transform="translate(9)"><path d="m1952.11279297 785.5h-1949.53164721l1949.53164721-784.7597813z"/><path d="m1951.61254883 1.48040771-1946.4506836 783.51959229h1946.4506836zm1-1.48040771v786h-1952.6126709z" fill="#6fe2dd"/></g><g filter="url(#b)" transform="translate(.001)"><g fill="#6fe2dd" transform="translate(12.74 2359.99)"><path d="m1948.37402344 783.77172852-1949.52693677-784.75779832 1949.52693677 1.48289082z"/><path d="m1947.87402344 783.03155518v-782.03511429l-1946.44104886-1.48054359zm1 1.48040771-1952.61282516-786 1952.61282516 1.4852381z" fill="#6fe2dd"/></g></g></svg>